<svg xmlns="http://www.w3.org/2000/svg" enable-background="new 0 0 47.5 47.5" viewBox="0 0 47.5 47.5"><defs><clipPath id="a" clipPathUnits="userSpaceOnUse"><path d="M 0,38 38,38 38,0 0,0 0,38 Z"/></clipPath></defs><g clip-path="url(#a)" transform="matrix(1.25 0 0 -1.25 0 47.5)"><path d="m 0,0 c 0,8.88 -14.799,20.138 -14.799,20.138 0,0 -14.799,-11.258 -14.799,-20.138 0,-6.946 8.175,-10.172 12.766,-5.173 -0.335,-4.179 -4.72,-7.491 -8.967,-7.491 l 0.5,0 c -0.828,0 -1.5,-0.672 -1.5,-1.5 0,-0.828 0.672,-1.5 1.5,-1.5 l 21,0 c 0.828,0 1.5,0.672 1.5,1.5 0,0.828 -0.672,1.5 -1.5,1.5 l 0.5,0 c -4.246,0 -8.632,3.312 -8.967,7.491 C -8.175,-10.172 0,-6.946 0,0" transform="translate(33.799 16.664)"/></g></svg>